<mxfile host="app.diagrams.net" modified="2020-08-05T03:06:32.487Z" agent="5.0 (Windows NT 10.0; Win64; x64) AppleWebKit/537.36 (KHTML, like Gecko) Chrome/84.0.4147.105 Safari/537.36" etag="JL2MHI8ARxUIg7ZgXTXJ" version="13.5.9" type="github">
  <diagram name="Page-1" id="099fd60b-425b-db50-ffb0-6b813814b670">
    <mxGraphModel dx="782" dy="437" grid="1" gridSize="10" guides="1" tooltips="1" connect="1" arrows="1" fold="1" page="1" pageScale="1" pageWidth="850" pageHeight="1100" background="#ffffff" math="0" shadow="0">
      <root>
        <mxCell id="0" />
        <mxCell id="1" parent="0" />
        <mxCell id="1zAzirIMnOxIeC6zMvhj-1" value="LTE Module" style="rounded=1;whiteSpace=wrap;html=1;fillColor=#bac8d3;strokeColor=#23445d;" vertex="1" parent="1">
          <mxGeometry x="170" y="170" width="100" height="90" as="geometry" />
        </mxCell>
        <mxCell id="1zAzirIMnOxIeC6zMvhj-2" value="MCU&lt;br&gt;STM32F4-Discovery&lt;br&gt;(Cortex-M4)" style="rounded=1;whiteSpace=wrap;html=1;fillColor=#b1ddf0;strokeColor=#10739e;" vertex="1" parent="1">
          <mxGeometry x="340" y="110" width="120" height="180" as="geometry" />
        </mxCell>
        <mxCell id="1zAzirIMnOxIeC6zMvhj-3" value="HX711&lt;br&gt;(Load Cell Amp)" style="rounded=1;whiteSpace=wrap;html=1;fillColor=#dae8fc;strokeColor=#6c8ebf;" vertex="1" parent="1">
          <mxGeometry x="525" y="130" width="90" height="60" as="geometry" />
        </mxCell>
        <mxCell id="1zAzirIMnOxIeC6zMvhj-4" value="Load Cell&lt;br&gt;(50 Kg)" style="rounded=1;whiteSpace=wrap;html=1;fillColor=#dae8fc;strokeColor=#6c8ebf;" vertex="1" parent="1">
          <mxGeometry x="680" y="130" width="100" height="60" as="geometry" />
        </mxCell>
        <mxCell id="1zAzirIMnOxIeC6zMvhj-5" value="Li-Ion Battery" style="rounded=1;whiteSpace=wrap;html=1;fillColor=#d5e8d4;strokeColor=#82b366;" vertex="1" parent="1">
          <mxGeometry x="340" y="350" width="120" height="60" as="geometry" />
        </mxCell>
        <mxCell id="1zAzirIMnOxIeC6zMvhj-9" style="edgeStyle=orthogonalEdgeStyle;rounded=0;orthogonalLoop=1;jettySize=auto;html=1;exitX=0.75;exitY=1;exitDx=0;exitDy=0;" edge="1" parent="1" source="1zAzirIMnOxIeC6zMvhj-6">
          <mxGeometry relative="1" as="geometry">
            <mxPoint x="600" y="400" as="targetPoint" />
          </mxGeometry>
        </mxCell>
        <mxCell id="1zAzirIMnOxIeC6zMvhj-6" value="Battery-Charger" style="rounded=1;whiteSpace=wrap;html=1;fillColor=#d5e8d4;strokeColor=#82b366;" vertex="1" parent="1">
          <mxGeometry x="522.5" y="350" width="95" height="60" as="geometry" />
        </mxCell>
        <mxCell id="1zAzirIMnOxIeC6zMvhj-7" value="Gas Sensor&lt;br&gt;(MQ-2)" style="rounded=1;whiteSpace=wrap;html=1;fillColor=#f8cecc;strokeColor=#b85450;" vertex="1" parent="1">
          <mxGeometry x="590" y="230" width="90" height="60" as="geometry" />
        </mxCell>
        <mxCell id="1zAzirIMnOxIeC6zMvhj-8" value="Mobile App" style="html=1;verticalLabelPosition=bottom;align=center;labelBackgroundColor=#ffffff;verticalAlign=top;strokeWidth=2;strokeColor=#0080F0;shadow=0;dashed=0;shape=mxgraph.ios7.icons.smartphone;" vertex="1" parent="1">
          <mxGeometry x="40" y="10" width="50" height="100" as="geometry" />
        </mxCell>
        <mxCell id="1zAzirIMnOxIeC6zMvhj-11" value="" style="shape=flexArrow;endArrow=classic;startArrow=classic;html=1;exitX=0;exitY=0.5;exitDx=0;exitDy=0;startWidth=10;startSize=5.62;" edge="1" parent="1" source="1zAzirIMnOxIeC6zMvhj-1">
          <mxGeometry width="50" height="50" relative="1" as="geometry">
            <mxPoint x="40" y="225" as="sourcePoint" />
            <mxPoint x="70" y="130" as="targetPoint" />
            <Array as="points">
              <mxPoint x="70" y="215" />
            </Array>
          </mxGeometry>
        </mxCell>
        <mxCell id="1zAzirIMnOxIeC6zMvhj-17" value="" style="shape=flexArrow;endArrow=classic;startArrow=classic;html=1;startWidth=18;startSize=6.51;entryX=-0.017;entryY=0.637;entryDx=0;entryDy=0;entryPerimeter=0;" edge="1" parent="1" target="1zAzirIMnOxIeC6zMvhj-2">
          <mxGeometry width="50" height="50" relative="1" as="geometry">
            <mxPoint x="271" y="225" as="sourcePoint" />
            <mxPoint x="340" y="210" as="targetPoint" />
            <Array as="points">
              <mxPoint x="300" y="225" />
            </Array>
          </mxGeometry>
        </mxCell>
        <mxCell id="1zAzirIMnOxIeC6zMvhj-18" value="" style="shape=flexArrow;endArrow=classic;html=1;endWidth=13;endSize=4.56;" edge="1" parent="1">
          <mxGeometry width="50" height="50" relative="1" as="geometry">
            <mxPoint x="670" y="159.5" as="sourcePoint" />
            <mxPoint x="620" y="159.5" as="targetPoint" />
            <Array as="points" />
          </mxGeometry>
        </mxCell>
        <mxCell id="1zAzirIMnOxIeC6zMvhj-19" value="" style="shape=flexArrow;endArrow=classic;html=1;endWidth=17;endSize=4.89;" edge="1" parent="1">
          <mxGeometry width="50" height="50" relative="1" as="geometry">
            <mxPoint x="520" y="159.5" as="sourcePoint" />
            <mxPoint x="463" y="159.5" as="targetPoint" />
          </mxGeometry>
        </mxCell>
        <mxCell id="1zAzirIMnOxIeC6zMvhj-21" value="" style="shape=flexArrow;endArrow=classic;html=1;endWidth=15;endSize=5.44;" edge="1" parent="1">
          <mxGeometry width="50" height="50" relative="1" as="geometry">
            <mxPoint x="570" y="260" as="sourcePoint" />
            <mxPoint x="470" y="260" as="targetPoint" />
          </mxGeometry>
        </mxCell>
        <mxCell id="1zAzirIMnOxIeC6zMvhj-23" value="" style="shape=flexArrow;endArrow=classic;html=1;entryX=0.5;entryY=1;entryDx=0;entryDy=0;endWidth=13;endSize=5;" edge="1" parent="1" target="1zAzirIMnOxIeC6zMvhj-2">
          <mxGeometry width="50" height="50" relative="1" as="geometry">
            <mxPoint x="400" y="340" as="sourcePoint" />
            <mxPoint x="440" y="290" as="targetPoint" />
          </mxGeometry>
        </mxCell>
        <mxCell id="1zAzirIMnOxIeC6zMvhj-24" value="" style="shape=flexArrow;endArrow=classic;html=1;entryX=1;entryY=0.5;entryDx=0;entryDy=0;endWidth=11;endSize=5.89;" edge="1" parent="1" target="1zAzirIMnOxIeC6zMvhj-5">
          <mxGeometry width="50" height="50" relative="1" as="geometry">
            <mxPoint x="520" y="380" as="sourcePoint" />
            <mxPoint x="550" y="340" as="targetPoint" />
          </mxGeometry>
        </mxCell>
      </root>
    </mxGraphModel>
  </diagram>
</mxfile>
